# xmcd CD database file
#
# Track frame offsets:
#	150
#	43262
#	61637
#	122237
#	153887
#	192062
#	232262
#
# Disc length: 3401 seconds
#
# Revision: 0
# Processed by: cddbd v1.5.2PL0 Copyright (c) Steve Scherf et al.
# Submitted via: CDex 1.51
#
DISCID=580d4707
DTITLE=Lauren Newton - Filigree
DYEAR=1982
DGENRE=Jazz
TTITLE0=Timbre
TTITLE1=Conversations
TTITLE2=Early Piece
TTITLE3=Run Of The Mill
TTITLE4=Filigree
TTITLE5=Cross Rhythms
TTITLE6=Who's Blue
EXTD=YEAR: 1982
EXTT0=
EXTT1=
EXTT2=
EXTT3=
EXTT4=
EXTT5=
EXTT6=
PLAYORDER=
